<svg width="32" height="30" viewBox="0 0 32 30" fill="none" xmlns="http://www.w3.org/2000/svg">
<path d="M31.3549 13.3328L22.0511 3.89976C19.5663 1.40252 16.1992 0 12.6886 0C9.17812 0 5.81099 1.40252 3.3262 3.89976L3.31379 3.91226L1.41469 5.88859C1.21796 6.10149 1.11196 6.38358 1.11945 6.67429C1.12695 6.96501 1.24733 7.24118 1.45475 7.44352C1.66218 7.64586 1.94012 7.75824 2.2289 7.75653C2.51769 7.75482 2.79429 7.63916 2.99934 7.43437L4.89293 5.46499C5.65476 4.69796 6.52414 4.04755 7.47334 3.53449L13.8864 9.99957L0.646493 23.3325C0.441533 23.5388 0.278946 23.7838 0.16802 24.0535C0.0570936 24.3231 0 24.6121 0 24.904C0 25.1958 0.0570936 25.4848 0.16802 25.7545C0.278946 26.0241 0.441533 26.2691 0.646493 26.4754L3.49998 29.349C3.70489 29.5554 3.94817 29.7191 4.21593 29.8308C4.48369 29.9425 4.77067 30 5.0605 30C5.35032 30 5.63731 29.9425 5.90506 29.8308C6.17282 29.7191 6.4161 29.5554 6.62102 29.349L19.861 16.0161L24.2743 20.4604C24.4792 20.6668 24.7225 20.8305 24.9902 20.9422C25.258 21.0539 25.545 21.1114 25.8348 21.1114C26.1246 21.1114 26.4116 21.0539 26.6794 20.9422C26.9471 20.8305 27.1904 20.6668 27.3953 20.4604L31.3521 16.4758C31.5573 16.2696 31.7201 16.0247 31.8312 15.7552C31.9424 15.4857 31.9997 15.1967 32 14.9049C32.0003 14.613 31.9434 14.3239 31.8327 14.0542C31.722 13.7845 31.5597 13.5393 31.3549 13.3328ZM19.0804 13.6564L15.9993 16.7591L13.1458 13.8883L16.2283 10.7843C16.3308 10.6811 16.4122 10.5585 16.4677 10.4237C16.5233 10.2888 16.5518 10.1442 16.5518 9.99818C16.5518 9.85217 16.5233 9.70759 16.4677 9.5727C16.4122 9.43782 16.3308 9.31528 16.2283 9.21209L9.6993 2.63869C11.5856 2.1037 13.5794 2.08431 15.4756 2.5825C17.3719 3.0807 19.1021 4.07851 20.4885 5.47332L26.5871 11.6551L22.6193 15.6466L20.6416 13.655C20.5391 13.5517 20.4174 13.4698 20.2835 13.4138C20.1495 13.3579 20.006 13.3291 19.861 13.3291C19.716 13.3291 19.5724 13.3579 19.4385 13.4138C19.3045 13.4698 19.1828 13.5517 19.0804 13.655V13.6564ZM25.8382 18.8868L24.1833 17.2202L28.1359 13.2286L29.7909 14.8953L25.8382 18.8868Z" fill="white"/>
</svg>
